<?xml version="1.0" encoding="utf-8"?>
<!-- Generator: Adobe Illustrator 17.1.0, SVG Export Plug-In . SVG Version: 6.00 Build 0)  -->
<!DOCTYPE svg PUBLIC "-//W3C//DTD SVG 1.1//EN" "http://www.w3.org/Graphics/SVG/1.1/DTD/svg11.dtd">
<svg version="1.1" id="Layer_1" xmlns="http://www.w3.org/2000/svg" xmlns:xlink="http://www.w3.org/1999/xlink" x="0px" y="0px"
	 viewBox="256.2 203.8 111 19.1" enable-background="new 256.2 203.8 111 19.1" xml:space="preserve">
<g>
	<g>
		<path fill="#FFFFFF" d="M257.8,207.8l0.8,0.8c0.6-0.6,1.4-1,2.3-1s1.8,0.4,2.3,1l0.8-0.8c-0.8-0.8-1.9-1.3-3.1-1.3
			C259.7,206.4,258.6,207,257.8,207.8z"/>
		<g>
			<path fill="#FFFFFF" d="M256.2,205.8l0.8,0.8c1-1,2.4-1.6,3.9-1.6s2.9,0.6,3.9,1.6l0.8-0.8c-1.2-1.2-2.9-1.9-4.7-1.9
				C259,203.8,257.4,204.6,256.2,205.8z"/>
		</g>
	</g>
	<path fill="#FFFFFF" d="M259.8,211c0-0.6,0.6-1,1.2-1c0.7,0,1.2,0.4,1.2,1v0.1c0,0.6-0.6,1-1.2,1
		C260.2,212.2,259.8,211.8,259.8,211L259.8,211z M259.9,214.5c0-0.6,0.5-1,1-1s1,0.5,1,1v7.4c0,0.6-0.5,1-1,1c-0.6,0-1-0.5-1-1
		V214.5z"/>
	<path fill="#FFFFFF" d="M265.1,211.5c0-0.6,0.5-1.1,1.1-1.1h0.2c0.6,0,0.8,0.2,1.1,0.6l6.2,8v-7.6c0-0.6,0.5-1,1-1s1,0.5,1,1v10.3
		c0,0.6-0.5,1-1,1h-0.1c-0.5,0-0.8-0.2-1.1-0.6l-6.3-8.2v7.8c0,0.6-0.5,1-1,1s-1-0.5-1-1L265.1,211.5L265.1,211.5z"/>
	<path fill="#FFFFFF" d="M279,221.7v-10.2c0-0.6,0.5-1.1,1.1-1.1h7.2c0.6,0,1,0.5,1,1c0,0.6-0.5,1-1,1h-6.1v3.2h5.3c0.6,0,1,0.5,1,1
		c0,0.6-0.5,1-1,1h-5.3v3.3h6.2c0.6,0,1,0.5,1,1c0,0.6-0.4,1-1,1h-7.3C279.4,222.8,279,222.3,279,221.7z"/>
	<path fill="#FFFFFF" d="M290,211.8c-0.1-0.2-0.1-0.3-0.1-0.4c0-0.6,0.5-1,1.1-1c0.6,0,1,0.3,1,0.8l2.8,8.5l2.8-8.4
		c0.2-0.5,0.6-0.9,1.1-0.9h0.2c0.6,0,1,0.3,1.1,0.9l2.8,8.4l2.8-8.5c0.2-0.4,0.6-0.8,1-0.8c0.6,0,1,0.5,1,1c0,0.2-0.1,0.3-0.1,0.4
		l-3.7,10.2c-0.2,0.6-0.6,0.9-1.1,0.9h-0.2c-0.6,0-0.9-0.3-1.1-0.9l-2.7-8.1l-2.7,8.1c-0.2,0.6-0.6,0.9-1.1,0.9h-0.2
		c-0.6,0-0.9-0.3-1.1-0.9L290,211.8z"/>
	<path fill="#FFFFFF" d="M309.6,221.4c-0.2-0.2-0.4-0.5-0.4-0.8c0-0.6,0.5-1,1-1c0.3,0,0.5,0.1,0.6,0.2c1,0.8,2.1,1.3,3.4,1.3
		c1.4,0,2.2-0.6,2.2-1.5l0,0c0-0.9-0.5-1.4-2.8-1.9c-2.6-0.6-4.1-1.4-4.1-3.7l0,0c0-2.1,1.8-3.6,4.2-3.6c1.5,0,2.8,0.4,3.9,1.1
		c0.2,0.2,0.5,0.5,0.5,0.9c0,0.6-0.5,1-1,1c-0.2,0-0.4-0.1-0.6-0.2c-1-0.6-1.8-1-2.8-1c-1.3,0-2,0.6-2,1.4l0,0c0,1,0.6,1.4,3,1.9
		c2.6,0.6,3.9,1.6,3.9,3.6l0,0c0,2.3-1.8,3.7-4.4,3.7C312.6,223,311,222.5,309.6,221.4z"/>
	<path fill="#FFFFFF" d="M320.7,211.1c0-0.1-0.1-0.2-0.1-0.2c0-0.2,0.2-0.5,0.5-0.5c0.2,0,0.4,0.2,0.5,0.4l3.8,10.6l3.5-10.7
		c0.1-0.2,0.2-0.3,0.5-0.3l0,0c0.2,0,0.4,0.2,0.5,0.3l3.5,10.7l3.8-10.6c0.1-0.2,0.2-0.4,0.5-0.4c0.2,0,0.5,0.2,0.5,0.5
		c0,0.1,0,0.2-0.1,0.2l-4.1,11.4c-0.1,0.2-0.2,0.4-0.5,0.4l0,0c-0.2,0-0.4-0.2-0.5-0.4l-3.5-10.3l-3.5,10.3
		c-0.1,0.2-0.2,0.4-0.5,0.4l0,0c-0.2,0-0.4-0.2-0.5-0.4L320.7,211.1z"/>
	<path fill="#FFFFFF" d="M341,210.9c0-0.2,0.2-0.5,0.5-0.5c0.2,0,0.5,0.2,0.5,0.5v11.5c0,0.2-0.2,0.5-0.5,0.5s-0.5-0.2-0.5-0.5
		V210.9z"/>
	<g>
		<path fill="#FFFFFF" d="M358.4,222.3v-11.2c0-0.2,0.2-0.5,0.5-0.5h7.9c0.2,0,0.4,0.2,0.4,0.4s-0.2,0.4-0.4,0.4h-7.5v4.7h6.7
			c0.2,0,0.4,0.2,0.4,0.4s-0.2,0.4-0.4,0.4h-6.7v4.9h7.6c0.2,0,0.4,0.2,0.4,0.4s-0.2,0.4-0.4,0.4h-8.1
			C358.6,222.8,358.4,222.6,358.4,222.3z"/>
	</g>
	<g>
		<path fill="#FFFFFF" d="M347,210.6h3.2c1.3,0,2.3,0.6,3.1,1.8c0.2,0.5,0.4,1,0.4,1.4v0.2c0,1.1-0.6,2-1.8,2.7l-0.6,0.2
			c2.4,3.6,3.6,5.4,3.6,5.5v0.2c0,0.2-0.2,0.3-0.5,0.4l0,0c-0.2,0-0.6-0.3-1-1l-3.2-4.9h-2.6v5.5c0,0.2-0.2,0.3-0.5,0.4l0,0
			c-0.2,0-0.4-0.2-0.5-0.5v-11.4C346.6,210.7,346.8,210.6,347,210.6z M347.6,211.4v4.8h2.4c1.4,0,2.2-0.6,2.6-1.9l0.1-0.3v-0.3
			c0-1-0.6-1.7-1.8-2.2c-0.3-0.1-0.9-0.2-1.5-0.2L347.6,211.4L347.6,211.4z"/>
	</g>
</g>
</svg>
